<?xml version="1.0" encoding="UTF-8"?>
<svg version="1.1" xmlns="http://www.w3.org/2000/svg" width="512" height="512">
<path d="M0 0 C3.94421102 2.96097134 7.35789326 6.37840471 10.81399727 9.88592148 C11.60535072 10.67683685 12.39670418 11.46775223 13.21203804 12.28263474 C15.80000218 14.87267222 18.37720513 17.47313839 20.95437813 20.07390976 C22.75689742 21.88203015 24.56008457 23.68948497 26.36390877 25.49630356 C30.60848531 29.75112517 34.84631799 34.0125501 39.08088344 38.2773267 C43.90692617 43.13704156 48.74161298 47.9881183 53.57700169 52.83853126 C63.51314108 62.80592697 73.4385169 72.78398274 83.35672188 82.76922226 C83.76881905 82.00778915 84.18091621 81.24635605 84.60550117 80.46184921 C85.14602119 79.46629013 85.68654121 78.47073105 86.24344063 77.44500351 C86.7792878 76.4566954 87.31513496 75.4683873 87.86721992 74.45013046 C92.85434266 65.47396348 100.75220714 60.81065193 110.35672188 57.76922226 C114.31063305 56.76253131 117.73196648 56.7611438 121.79422188 57.08172226 C122.88605782 57.16035507 123.97789375 57.23898788 125.10281563 57.32000351 C128.39052976 57.77388961 131.24982614 58.62112353 134.35672188 59.76922226 C134.56426094 59.15176132 134.7718 58.53430038 134.98562813 57.89812851 C139.47161813 45.56634847 146.4913975 38.98278889 157.85672188 32.89422226 C162.11471305 31.44048386 166.46481138 31.4900922 170.91922188 31.45672226 C171.63980782 31.45108261 172.36039375 31.44544296 173.10281563 31.43963242 C177.85806997 31.50386319 181.84002078 32.27948248 186.35672188 33.76922226 C186.5758625 33.14015976 186.79500313 32.51109726 187.02078438 31.86297226 C191.27026522 20.39282885 197.71665466 12.77314284 208.79422188 7.39422226 C218.13490144 3.95823812 229.90999715 4.29373344 238.98562813 8.30828476 C246.2756566 12.79999917 252.31689973 18.42804613 258.35208321 24.4581871 C259.21340355 25.31118393 260.07472389 26.16418076 260.96214485 27.04302597 C263.30514502 29.36617242 265.64360013 31.69376041 267.97924447 34.02429914 C269.44643242 35.48781985 270.91490462 36.95003977 272.38379669 38.41184998 C277.53061985 43.53423177 282.67174317 48.66226336 287.80813789 53.79510117 C292.5586886 58.5420295 297.32217316 63.2756983 302.09184629 68.00340497 C306.2149683 72.09154591 310.32813039 76.1895404 314.43414515 80.29486239 C316.87375099 82.73368426 319.31696042 85.1685706 321.77058029 87.59329987 C348.98935479 114.54210197 366.40260692 144.53056098 366.73172188 183.70672226 C366.42483609 213.50649019 356.9221 242.08198666 337.35672188 264.76922226 C336.51899239 265.74399521 336.51899239 265.74399521 335.66433907 266.73846054 C328.45181842 274.93355139 320.7181458 282.62915812 313.01101875 290.35515976 C310.61897884 292.75691551 308.23785275 295.16915731 305.85672188 297.58172226 C280.08080471 323.53752983 250.11630883 341.64052679 212.58621407 342.01116562 C191.63930626 342.08045833 171.91914747 339.7383263 151.34890938 335.68328476 C148.96777444 335.21623371 146.58650168 334.74988978 144.20521927 334.28359127 C142.52907601 333.95532782 140.85298403 333.62680241 139.17694092 333.29802799 C132.99583377 332.08649329 126.81176611 330.89090191 120.62625313 329.70208359 C112.30574599 328.10273721 103.98854201 326.48720142 95.67415047 324.85635471 C90.93453617 323.92733668 86.19365022 323.00609169 81.44949532 322.10052109 C76.74261353 321.20174194 72.03980218 320.28394262 67.33917809 319.35301018 C65.57922156 319.00782767 63.81794852 318.66927904 62.05532646 318.33797646 C49.78529474 316.02601721 39.18895501 313.60489639 31.51297188 302.89422226 C27.67649348 295.8433971 27.33833723 288.60916757 28.35672188 280.76922226 C33.35267074 265.51668964 45.10959427 253.90554749 58.97000313 246.34344101 C74.31544831 238.81506776 89.95175512 239.24187995 106.66922188 239.08172226 C109.06702643 239.0484982 111.46481374 239.01400397 113.86258125 238.97820663 C119.6938432 238.89388727 125.52512349 238.82529764 131.35672188 238.76922226 C130.02874094 235.82382385 128.58715648 233.75246986 126.30064201 231.47821999 C125.66986551 230.84592818 125.03908901 230.21363638 124.38919806 229.56218421 C123.3476832 228.5335006 123.3476832 228.5335006 122.28512764 227.48403549 C121.54852921 226.74855047 120.81193078 226.01306545 120.05301118 225.25529301 C117.57658936 222.78495688 115.0931025 220.32184583 112.60965157 217.85857773 C110.8354062 216.09144298 109.06162893 214.32383814 107.28828621 212.55579758 C103.46431581 208.74494295 99.63744531 204.93703734 95.8081913 201.13149261 C90.26318145 195.62045325 84.72561483 190.10198127 79.19022372 184.58128251 C70.19787195 175.61282883 61.20252971 166.64738228 52.20388985 157.68523788 C51.66529344 157.14882172 51.12669703 156.61240556 50.57177952 156.05973436 C42.93674308 148.45588529 35.29871926 140.85504408 27.65947357 133.25542416 C27.12208992 132.72082714 26.58470628 132.18623012 26.03103828 131.6354332 C25.22594578 130.83452129 25.22594578 130.83452129 24.40458879 130.01742934 C15.44073132 121.09971577 6.48465981 112.17422941 -2.46512294 103.24239075 C-7.98122683 97.73796665 -13.50373527 92.24012876 -19.0347611 86.75069816 C-23.27894093 82.53729355 -27.51260497 78.31347983 -31.74255753 74.08578682 C-33.47484892 72.35777959 -35.21057106 70.63320354 -36.95001221 68.91239357 C-39.33066497 66.55625105 -41.69852364 64.18792555 -44.06374931 61.81631088 C-45.09187984 60.80770376 -45.09187984 60.80770376 -46.14078069 59.77872074 C-54.66794248 51.16204878 -59.62597833 42.18569863 -59.95577812 29.95672226 C-59.75020085 18.55323012 -56.69313287 11.0105281 -48.79171562 2.85906601 C-34.91221433 -10.1633346 -15.41472826 -10.53761219 0 0 Z M-36.22530937 17.48797226 C-39.8997778 22.48609647 -41.16056254 26.45835237 -40.64327812 32.76922226 C-38.34917038 39.33235298 -34.12467397 43.84257121 -29.24178886 48.62481308 C-28.49390335 49.37329403 -27.74601783 50.12177499 -26.97546911 50.89293718 C-24.47763391 53.38800383 -21.96581814 55.86849452 -19.453825 58.34930038 C-17.65590407 60.13954137 -15.85889412 61.93069764 -14.06272697 63.72269821 C-10.19809264 67.5747023 -6.32756561 71.42062869 -2.45176506 75.2613945 C3.15827416 80.821096 8.75522293 86.39383132 14.34873182 91.97015792 C23.43374328 101.02693102 32.52619109 110.0761962 41.62478828 119.11931992 C42.44074517 119.93030993 42.44074517 119.93030993 43.27318603 120.75768358 C47.13416588 124.59506316 50.9954128 128.43217396 54.85672188 132.26922226 C59.26755069 136.65233764 63.6782586 141.03557459 68.08865547 145.4191246 C68.63196316 145.95911978 69.17527084 146.49911496 69.73504239 147.05547363 C78.80048155 156.06612988 87.85803711 165.08467098 96.91001844 174.10884619 C102.48856264 179.66949132 108.07410391 185.22292606 113.66893566 190.76718414 C117.95599903 195.01649629 122.23281499 199.2759707 126.50600052 203.5392437 C128.25847669 205.28423404 130.01440625 207.02576412 131.77403259 208.76354408 C134.1771159 211.13772745 136.5675134 213.52401122 138.95523262 215.91363144 C139.65289631 216.59691529 140.35056001 217.28019914 141.06936502 217.98418856 C145.97455937 222.93132308 149.70014299 227.9069935 150.88797188 234.89422226 C150.81918727 241.22240638 150.55004732 246.75117077 146.35672188 251.76922226 C141.46490793 255.70629586 136.84528833 257.87937323 130.52493477 257.9269371 C129.54283531 257.93719925 128.56073586 257.9474614 127.54887581 257.95803452 C126.48644157 257.96533585 125.42400734 257.97263718 124.32937813 257.98015976 C122.06960556 258.00825256 119.80984004 258.03691715 117.55008125 258.06609726 C113.99564177 258.10716361 110.44133044 258.14405724 106.88675117 258.17058945 C103.45068382 258.1984488 100.01521106 258.24434451 96.57937813 258.29265976 C95.01305389 258.29753906 95.01305389 258.29753906 93.41508675 258.30251694 C79.35759922 258.53298708 66.82521463 262.28532334 56.48172188 272.08172226 C51.60128443 277.30449255 47.52922899 282.26157772 47.16922188 289.58172226 C48.64550504 293.54437707 50.68234964 294.97429423 54.35672188 296.76922226 C57.4769504 297.7658621 60.63696679 298.38610434 63.85257149 298.99578476 C64.79185997 299.18501511 65.73114845 299.37424545 66.69890022 299.56921005 C69.79986743 300.19050968 72.90424315 300.79251112 76.00906563 301.39422226 C78.18763357 301.82622916 80.36598018 302.25935361 82.54411507 302.69353867 C88.28849486 303.83513076 94.03602227 304.96005449 99.78427315 306.0819664 C104.41228354 306.98814125 109.03790317 307.90616306 113.66343021 308.82491684 C119.25696946 309.93560598 124.85163499 311.04056607 130.44656563 312.14422226 C132.00193692 312.45133133 132.00193692 312.45133133 133.58872986 312.76464462 C144.6399829 314.94168991 155.70022609 317.04378223 166.79641914 318.98015976 C167.72691802 319.14269241 168.6574169 319.30522507 169.61611271 319.47268295 C204.27110267 325.44041123 237.86670082 325.11177528 268.03470039 304.98235703 C278.84956781 297.00598354 288.18507013 287.43309398 297.64187813 277.93011093 C299.61768638 275.94509278 301.60130773 273.96847614 303.59305 271.99944687 C318.95049606 257.09478035 318.95049606 257.09478035 331.35672188 239.76922226 C331.79468086 239.02857529 332.23263985 238.28792831 332.68387032 237.52483749 C333.72764383 235.67288636 334.68609226 233.80982608 335.60672188 231.89422226 C335.9304377 231.23204697 336.25415352 230.56987167 336.58767891 229.88763046 C348.11678641 205.65467581 350.59947604 176.8901121 342.23416328 151.22625351 C334.40988424 129.31653054 320.73022523 114.66717173 304.50107908 98.47767138 C302.52486227 96.5045772 300.55330196 94.52686121 298.58165181 92.54920536 C293.93126146 87.88485803 289.27323664 83.22823711 284.61013985 78.57659531 C279.8136642 73.79164269 275.03019315 68.99396405 270.25285327 64.18991226 C266.12991953 60.04479891 261.99924523 55.90751346 257.86227429 51.77640969 C255.40021995 49.3177146 252.94110402 46.8562604 250.48937798 44.38726234 C247.76097405 41.6404696 245.01648188 38.91010781 242.2702961 36.18108749 C241.46803596 35.36915939 240.66577583 34.55723129 239.83920479 33.72069931 C235.0669865 29.01073234 230.86869726 25.16627609 223.91531563 24.55437851 C216.85923986 25.47699615 211.8298703 28.19412153 207.33719063 33.93719101 C204.73143932 38.80610481 204.9268681 44.04980716 206.23172188 49.26922226 C209.05206084 54.83007928 213.98746725 59.39996763 218.35672188 63.76922226 C218.45530791 65.22481596 218.4864433 66.68530145 218.48172188 68.14422226 C218.4843 68.93570663 218.48687813 69.72719101 218.48953438 70.54265976 C218.35672188 72.76922226 218.35672188 72.76922226 217.35672188 75.76922226 C213.56482823 77.03318681 210.26849263 77.61954956 206.35672188 76.76922226 C204.47122383 75.4791832 204.47122383 75.4791832 202.59500313 73.75359726 C201.90205147 73.11808945 201.20909981 72.48258163 200.49514961 71.82781601 C196.28802648 67.77775753 192.22049326 63.59512077 188.18094063 59.37859726 C183.87527474 54.98132146 180.11213623 51.35314339 173.79422188 50.37078476 C168.58431122 50.42088005 164.763873 50.69446566 160.35672188 53.76922226 C156.02588748 58.29691277 153.68582516 61.86214323 152.98172188 68.08172226 C153.79407444 76.0698558 157.90959126 80.75909319 163.64969063 86.10515976 C166.34488007 88.73250691 166.35426199 89.73109407 166.60672188 93.64422226 C166.5501366 96.24242967 166.35593922 97.77112999 165.35672188 100.20672226 C162.92352835 102.10765471 160.60967717 102.59908968 157.58719063 103.08172226 C149.32318211 101.92389269 142.73775313 92.20648964 137.34500313 86.59148788 C130.75939985 79.72932003 130.75939985 79.72932003 122.04812813 76.33562851 C115.69803355 76.32397696 111.3988465 77.7507411 106.84890938 82.26531601 C102.71542592 87.00110705 101.85517571 90.98499541 101.97000313 97.09734726 C103.24878212 105.93254757 111.72233545 112.37753825 117.84500313 118.26531601 C120.82235666 121.23340872 121.26177579 121.93053177 121.73172188 126.08172226 C121.35672188 129.76922226 121.35672188 129.76922226 119.29422188 132.70672226 C116.35672188 134.76922226 116.35672188 134.76922226 113.04422188 135.51922226 C103.94598225 133.66873284 96.75293871 123.29083633 90.35428047 116.84856796 C89.26948665 115.76021085 88.18445277 114.67209296 87.0991993 113.58419418 C84.77724254 111.25572665 82.45680654 108.92575818 80.13752556 106.59462547 C76.46711571 102.90581029 72.79226317 99.22144238 69.11664009 95.53782272 C58.67042005 85.06753311 48.23018546 74.59128708 37.79422188 64.11077499 C32.0193591 58.31133923 26.2408879 52.51552303 20.45854819 46.72354192 C16.80650317 43.06497065 13.15900235 39.40194771 9.51484466 35.73552096 C7.24628325 33.4552046 4.97352741 31.17910493 2.69958115 28.90415955 C1.64893627 27.85137314 0.60000626 26.79687203 -0.44704056 25.74050713 C-1.88055483 24.29473411 -3.320929 22.85577261 -4.76159477 21.4171257 C-5.56422564 20.61135243 -6.3668565 19.80557917 -7.19380951 18.97538853 C-12.24873532 14.42256154 -16.22958655 12.09746183 -22.89327812 11.45672226 C-28.25299906 11.90336567 -32.52163422 13.46422642 -36.22530937 17.48797226 Z " fill="#000000" transform="translate(100.64327812194824,144.23077774047852)"/>
<path d="M0 0 C2.5 2.0625 2.5 2.0625 4 5 C4.33748053 11.29383792 3.49918832 17.20708317 2.46875 23.40625 C2.31337769 24.3715564 2.15800537 25.33686279 1.9979248 26.3314209 C1.50447999 29.38859834 1.00238272 32.44427996 0.5 35.5 C0.16218601 37.58324027 -0.17505943 39.66657282 -0.51171875 41.75 C-1.33457286 46.8344244 -2.1651853 51.9175263 -3 57 C-2.40425674 56.67432037 -1.80851349 56.34864075 -1.19471741 56.01309204 C48.45441473 28.92243163 102.55444059 21.93229872 157.3046875 37.4609375 C187.2818238 46.53132148 228.30850613 66.33903238 246 94 C247.00638587 97.95365879 247.43140662 100.07555725 245.6875 103.8125 C242.55807222 107.86916564 242.55807222 107.86916564 240.1171875 108.44140625 C235.54737395 108.68820803 232.74794597 108.30884211 229.25 105.25 C227.8165367 103.85033152 226.40206301 102.43112131 225 101 C188.46380552 65.48579697 142.01822978 49.02920185 91.51443481 49.67773438 C81.45855197 49.8614609 71.77779619 50.57803603 62 53 C60.7301123 53.31396729 60.7301123 53.31396729 59.43457031 53.63427734 C41.4149097 58.22529437 25.25448265 65.04710258 9 74 C9 74.33 9 74.66 9 75 C9.5902446 75.09356277 10.1804892 75.18712555 10.78862 75.28352356 C16.93890647 76.26058757 23.08665617 77.25256067 29.2331543 78.25317383 C31.52648403 78.62450879 33.82043064 78.99205486 36.11499023 79.35571289 C39.41560162 79.87949469 42.71374486 80.4169223 46.01171875 80.95703125 C47.54792122 81.19629082 47.54792122 81.19629082 49.11515808 81.44038391 C55.18255917 82.45058379 59.53717976 83.53717976 64 88 C64.85385306 92.57485482 64.56211357 96.0502219 62.1875 100.0625 C53.86696614 105.12007941 41.63717347 101.225455 32.48046875 99.69921875 C31.00848596 99.45930162 29.53642315 99.21987496 28.06428528 98.98091125 C24.99996708 98.48139465 21.93678486 97.97552564 18.87426758 97.46508789 C14.96153511 96.81354451 11.04627504 96.17891405 7.13000011 95.54905987 C4.09786025 95.05935729 1.06730426 94.56036756 -1.96286583 94.0586338 C-3.40599255 93.82088815 -4.84960611 93.58607716 -6.29371071 93.35434532 C-8.31185015 93.02914893 -10.32749991 92.69136221 -12.34301758 92.3503418 C-13.48676346 92.16158981 -14.63050934 91.97283783 -15.80891418 91.77836609 C-20.77015043 90.56822688 -24.12930096 89.30604857 -27 85 C-27.59191352 76.78202541 -26.03880049 68.79137143 -24.69921875 60.7109375 C-24.45941783 59.2384729 -24.21998861 57.76594773 -23.98091125 56.29336548 C-23.4804122 53.22146417 -22.97459438 50.15049783 -22.46508789 47.08007812 C-21.81522093 43.16040248 -21.18007716 39.23850439 -20.54905987 35.31575584 C-20.05871916 32.27939186 -19.55990052 29.24446601 -19.0586338 26.20988846 C-18.82108027 24.76476491 -18.58626781 23.31918781 -18.35434532 21.87314987 C-18.02836682 19.84796889 -17.6907969 17.82503698 -17.3503418 15.80224609 C-17.06721382 14.08090958 -17.06721382 14.08090958 -16.77836609 12.32479858 C-15.68287523 7.64539834 -14.44369895 3.31995332 -10.8125 0 C-6.94206259 -1.37615552 -3.89460443 -1.30904241 0 0 Z " fill="#000000" transform="translate(182,47)"/>
</svg>
