<?xml version="1.0" encoding="UTF-8"?>
<svg version="1.1" xmlns="http://www.w3.org/2000/svg" width="512" height="512">
<path d="M0 0 C8.67350628 6.09450691 13.64878571 15.17807833 15.5390625 25.52734375 C16.68194403 36.59107194 13.87919397 45.54207037 7.5390625 54.52734375 C5.15939224 57.29687954 2.59696772 59.85443849 -0.00286865 62.4165802 C-0.75372529 63.16858898 -1.50458193 63.92059777 -2.2781918 64.69539469 C-4.78224286 67.19970276 -7.29682914 69.69315061 -9.81152344 72.18676758 C-11.61423053 73.98535214 -13.4162612 75.7846149 -15.21766663 77.58450317 C-19.09073969 81.45149162 -22.96828005 85.31391101 -26.8498764 89.1723423 C-32.46400436 94.75315655 -38.06880561 100.34326371 -43.67122141 105.93583258 C-52.76509704 115.01340893 -61.86492125 124.08499607 -70.96923828 133.15209961 C-71.51343097 133.69407117 -72.05762365 134.23604273 -72.61830702 134.79443767 C-74.82367595 136.99078985 -77.02905443 139.18713244 -79.23444669 141.3834612 C-85.31532096 147.43946891 -91.39498807 153.49668779 -97.47412109 159.55444336 C-98.01886226 160.09726555 -98.56360343 160.64008775 -99.12485191 161.1993591 C-108.19908303 170.24191049 -117.26934187 179.28843797 -126.33716989 188.33741015 C-131.92932002 193.91747892 -137.52529993 199.49365603 -143.12625417 205.06488796 C-147.41067274 209.32699752 -151.69015237 213.59402979 -155.96783257 217.86290359 C-157.72656313 219.61627344 -159.48703203 221.36790154 -161.24932289 223.11769295 C-163.64645006 225.49825468 -166.03742965 227.88482305 -168.42694092 230.27302551 C-169.13266102 230.97087357 -169.83838111 231.66872162 -170.56548667 232.38771659 C-171.20185561 233.02621754 -171.83822456 233.66471848 -172.49387741 234.32256794 C-173.04669789 234.87300276 -173.59951837 235.42343758 -174.16909099 235.99055225 C-175.69426279 237.61334902 -175.69426279 237.61334902 -176.4609375 240.52734375 C-175.81106873 240.53320999 -175.16119995 240.53907623 -174.49163818 240.54512024 C-167.6770929 240.60946521 -160.86300208 240.69398701 -154.04882812 240.78979492 C-151.51178002 240.82287984 -148.97466122 240.85096192 -146.4375 240.8737793 C-142.77313336 240.9076286 -139.10940514 240.9599594 -135.4453125 241.015625 C-134.32606384 241.02201492 -133.20681519 241.02840485 -132.0536499 241.0349884 C-115.68725637 241.33489095 -101.77894057 246.73464687 -89.4609375 257.52734375 C-88.44580078 258.38392578 -88.44580078 258.38392578 -87.41015625 259.2578125 C-80.49844258 265.55216922 -73.05370666 276.01535109 -72.1875 285.53125 C-71.92030832 294.89323551 -73.04218371 301.33880707 -79.1875 308.5546875 C-86.92085443 316.08118265 -97.66870464 318.03974659 -107.9296875 320.04516602 C-109.01933807 320.26526337 -110.10898865 320.48536072 -111.23165894 320.71212769 C-114.80637001 321.43156372 -118.38346246 322.13819675 -121.9609375 322.84375 C-124.48136883 323.34607912 -127.00171236 323.84884897 -129.52197266 324.35203552 C-134.80289666 325.40419823 -140.08503651 326.44993299 -145.36816406 327.4909668 C-151.4000342 328.6796886 -157.42889264 329.88283081 -163.45638657 331.09353024 C-169.32704429 332.27213379 -175.20023208 333.43759743 -181.07446289 334.59827995 C-183.5369145 335.08630237 -185.99869731 335.5777146 -188.4597168 336.0729084 C-209.65834449 340.32920565 -231.38034078 344.22170659 -253.0859375 343.90234375 C-254.15312012 343.89291748 -255.22030273 343.88349121 -256.31982422 343.8737793 C-298.27918702 343.07892646 -328.73186851 320.65245859 -357.29370117 292.01025391 C-359.64700887 289.65377431 -362.01339936 287.31100084 -364.38085938 284.96875 C-392.18777983 257.27831204 -410.59197784 225.65712365 -410.8359375 185.52734375 C-410.56428266 153.20803441 -399.37967948 124.36694539 -377.24511719 100.75390625 C-376.6397047 100.10708893 -376.03429222 99.46027161 -375.41053391 98.79385376 C-367.77351231 90.67908256 -359.90844862 82.79075287 -352.0390625 74.90234375 C-351.23694084 74.09739471 -350.43481918 73.29244568 -349.60839081 72.46310425 C-345.37846886 68.21834658 -341.1458035 63.97634872 -336.91064453 59.73681641 C-332.56457301 55.38522554 -328.22789142 51.02439851 -323.89323807 46.66143799 C-320.52667334 43.27619895 -317.15336994 39.89773572 -313.77822113 36.52105713 C-312.17628845 34.91611768 -310.57683296 33.30870139 -308.98001862 31.69866943 C-284.88074542 7.41388437 -284.88074542 7.41388437 -267.1484375 7.02734375 C-256.22936923 7.08569628 -247.41346903 10.53779553 -239.4375 18.13671875 C-235.22706738 23.22917875 -232.53972741 29.29097402 -230.4609375 35.52734375 C-229.63980469 35.20507812 -228.81867188 34.8828125 -227.97265625 34.55078125 C-217.87581277 31.6082084 -205.70517848 32.49585671 -196.4609375 37.52734375 C-188.52440855 42.39777328 -182.43674478 48.91358915 -180.0859375 58.08984375 C-179.8796875 59.22421875 -179.6734375 60.35859375 -179.4609375 61.52734375 C-178.78289062 61.31078125 -178.10484375 61.09421875 -177.40625 60.87109375 C-165.95813087 57.44617168 -156.75167672 57.64921686 -145.85546875 62.74609375 C-137.15494242 67.48465574 -131.80837349 74.27266778 -128.4609375 83.52734375 C-123.35889774 79.26197058 -118.60578771 74.79203633 -113.94018555 70.05664062 C-113.2237085 69.33388443 -112.50723145 68.61112823 -111.76904297 67.86647034 C-110.22391491 66.30756616 -108.67986212 64.7475956 -107.13678551 63.18666077 C-104.68801517 60.71107331 -102.23473838 58.24003842 -99.77998352 55.77038574 C-92.80418547 48.75201532 -85.83102797 41.7310955 -78.87426758 34.69384766 C-74.60849642 30.37938468 -70.33287817 26.07489364 -66.05079079 21.77662659 C-64.4281335 20.14411463 -62.80912751 18.50796447 -61.19397545 16.86802673 C-58.92854797 14.56860746 -56.65073702 12.28214122 -54.36987305 9.99804688 C-53.71551773 9.32773941 -53.06116241 8.65743195 -52.38697815 7.96681213 C-38.03541258 -6.29309634 -17.80047673 -10.65203131 0 0 Z M-46.07763672 29.81933594 C-47.22761249 30.97179849 -48.37826078 32.12359032 -49.52952576 33.27476501 C-52.63698869 36.3856227 -55.73520559 39.50554294 -58.83192968 42.62708569 C-62.0777346 45.89544654 -65.33251086 49.15484736 -68.5864563 52.4151001 C-74.74139417 58.58449512 -80.8890643 64.76107575 -87.03376973 70.94066072 C-98.05381206 82.02277729 -109.08621623 93.0925819 -120.12126744 104.15975118 C-123.99406892 108.04440033 -127.86367057 111.93220182 -131.73064876 115.82264757 C-134.12967283 118.23546488 -136.53066044 120.6463214 -138.9321003 123.05673409 C-140.04805156 124.17776803 -141.16312436 125.29967721 -142.27726936 126.42250633 C-143.79340493 127.9502726 -145.31255355 129.47497795 -146.83248901 130.9989624 C-147.68305311 131.85434475 -148.53361721 132.7097271 -149.40995598 133.59103012 C-152.64821547 136.64824244 -155.03167045 136.87748151 -159.48828125 136.8046875 C-161.4609375 136.52734375 -161.4609375 136.52734375 -163.8984375 134.90234375 C-165.8470981 131.94037963 -166.38988897 130.07977009 -166.4609375 126.52734375 C-164.01279046 120.14951419 -159.41513331 116.29992916 -154.5546875 111.73828125 C-150.39567577 107.7378759 -147.14688645 104.12394096 -146.02734375 98.25390625 C-146.01684189 92.60390547 -146.92803804 88.05695507 -150.4609375 83.52734375 C-154.54077048 80.02910398 -159.00410759 77.52734375 -164.4609375 77.52734375 C-176.24058777 79.64107539 -183.84508937 89.76783746 -191.63671875 98.09375 C-196.67398954 103.28691312 -196.67398954 103.28691312 -200.78515625 104.54296875 C-203.94355354 104.52452555 -205.73858978 104.14603699 -208.4609375 102.52734375 C-210.91543537 99.6637629 -211.43485814 97.98807906 -211.6484375 94.21484375 C-210.17797541 89.648672 -207.9166647 87.70920422 -204.46875 84.49609375 C-200.2101668 80.32036237 -197.82246861 75.55392278 -197.37109375 69.5703125 C-197.61124507 64.10948039 -199.62429659 59.95008856 -203.5234375 56.15234375 C-207.656352 52.9698252 -212.2365578 51.39991985 -217.4609375 51.52734375 C-225.97449594 53.36811314 -230.93624041 59.50084474 -236.7109375 65.58984375 C-238.1808777 67.12271938 -239.65446287 68.65175731 -241.13397217 70.17539978 C-242.46851779 71.5522206 -243.79172228 72.94000775 -245.11425781 74.32836914 C-247.76753649 76.81464474 -249.8234693 78.43305575 -253.49609375 78.64453125 C-256.71815439 78.25962227 -258.86464735 77.99319543 -261.4609375 75.96484375 C-262.94029975 72.35889827 -263.42928954 69.28482243 -262.4609375 65.52734375 C-260.44349749 62.53425652 -258.00979571 60.07072054 -255.4609375 57.52734375 C-251.72910289 53.19034677 -249.73571379 49.95453432 -249.0859375 44.21484375 C-249.69742384 38.20189479 -251.9232335 33.57056891 -256.5234375 29.58984375 C-260.13578219 27.05351663 -262.82310821 26.3288878 -267.1484375 26.15234375 C-267.95667969 26.10335937 -268.76492188 26.054375 -269.59765625 26.00390625 C-277.69273533 27.48377064 -283.66861407 34.30311193 -289.22851562 39.90673828 C-290.06539413 40.73835983 -290.90227264 41.56998138 -291.76451111 42.42680359 C-294.51463757 45.16378355 -297.25370995 47.91152468 -299.9921875 50.66015625 C-301.91103641 52.57833566 -303.83167938 54.4947159 -305.7520752 56.41134644 C-309.77192844 60.42575561 -313.78544852 64.44641497 -317.79541016 68.47070312 C-322.40794436 73.09952781 -327.03114017 77.7174919 -331.66008615 82.32989991 C-335.6548738 86.31099402 -339.64368596 90.29800431 -343.62772512 94.28985488 C-345.99794763 96.66471531 -348.37062267 99.03695647 -350.74757385 101.40509415 C-353.40353007 104.0533622 -356.04956462 106.71117994 -358.69335938 109.37158203 C-359.46554306 110.13769302 -360.23772675 110.90380402 -361.03330994 111.69313049 C-380.66166472 131.54848859 -391.02211808 157.21594978 -391.8359375 185.02734375 C-390.66248966 223.60444137 -371.91954279 249.63741849 -345.45581055 275.97851562 C-342.65208218 278.77371017 -339.86758992 281.58712582 -337.08398438 284.40234375 C-313.78943077 307.79038374 -288.34464931 323.97195786 -254.4609375 324.83984375 C-232.15550451 324.40514878 -210.23573883 320.7024613 -188.4296875 316.2734375 C-185.88256904 315.76582539 -183.33524161 315.25926094 -180.78771973 314.75367737 C-175.51924679 313.70531107 -170.25253158 312.64876533 -164.98730469 311.58422852 C-158.91721807 310.35701772 -152.84465743 309.14273778 -146.77053785 307.93565696 C-140.86576749 306.76222107 -134.96217521 305.58300577 -129.05921936 304.40046883 C-126.56831553 303.90154172 -124.07721801 303.4035806 -121.58592224 302.9066143 C-118.12851326 302.21546694 -114.67248184 301.51782468 -111.21679688 300.81811523 C-110.19564789 300.61495193 -109.1744989 300.41178864 -108.12240601 300.20246887 C-107.18140045 300.01052948 -106.2403949 299.81859009 -105.27087402 299.62083435 C-104.45772484 299.45696448 -103.64457565 299.29309462 -102.80678558 299.124259 C-98.8998835 298.13012411 -96.07208165 297.09023968 -93.0859375 294.33984375 C-91.22068402 291.59802103 -91.22068402 291.59802103 -91.2734375 288.27734375 C-92.93130887 283.04196046 -95.86155903 279.60470809 -99.4609375 275.52734375 C-99.98816406 274.89441406 -100.51539063 274.26148438 -101.05859375 273.609375 C-108.06283434 265.81350034 -118.71504995 261.08529163 -129.12730408 260.33528137 C-132.19799231 260.25110426 -135.26410779 260.22488777 -138.3359375 260.21875 C-140.64323179 260.19359925 -142.9505234 260.1682011 -145.2578125 260.14257812 C-148.86522782 260.11382693 -152.47259673 260.08978319 -156.08007812 260.07104492 C-159.58226635 260.04933517 -163.08393156 260.00990485 -166.5859375 259.96875 C-167.6569873 259.96863419 -168.72803711 259.96851837 -169.83154297 259.96839905 C-177.33402885 259.86977031 -183.28926831 259.13516064 -189.2734375 254.21484375 C-194.17380314 248.19439454 -194.83224887 243.55992937 -195.0546875 235.94140625 C-193.6589855 227.91611975 -187.57775236 222.2161339 -181.97042847 216.69625854 C-181.22506651 215.95045001 -180.47970455 215.20464148 -179.71175587 214.43623269 C-177.22618982 211.9527409 -174.73008764 209.48012291 -172.23388672 207.00732422 C-170.44426928 205.22346741 -168.65533597 203.43892403 -166.86703491 201.65374756 C-163.02173974 197.81792073 -159.17200971 193.98663347 -155.31832504 190.15923691 C-149.74186606 184.62053845 -144.17522625 179.07205285 -138.61117806 173.52089001 C-129.57596355 164.50684798 -120.5351633 155.49843222 -111.48974609 146.49462891 C-110.94906864 145.95643489 -110.40839119 145.41824088 -109.85132958 144.86373796 C-106.01301325 141.04312482 -102.17449695 137.22271262 -98.3359375 133.40234375 C-93.9476127 129.03480982 -89.55938302 124.66718037 -85.17138672 120.29931641 C-84.36045167 119.49210792 -84.36045167 119.49210792 -83.53313409 118.6685922 C-74.51804775 109.69456785 -65.50885544 100.71464876 -56.50384915 91.73050988 C-50.9532414 86.19333703 -45.39736023 80.66155784 -39.8345492 75.13664438 C-35.5749744 70.90534149 -31.3230398 66.66644654 -27.07385635 62.42470551 C-25.32974894 60.68622075 -23.58304684 58.95033465 -21.83358765 57.21723557 C-19.447919 54.85317971 -17.07164767 52.48005853 -14.69747925 50.10446167 C-14.00147578 49.41924309 -13.30547231 48.7340245 -12.58837783 48.02804172 C-7.15322931 42.55770632 -3.73548821 37.48931431 -3.4609375 29.52734375 C-4.62485162 24.48692229 -6.72906912 20.15554912 -10.4609375 16.52734375 C-25.80208686 7.80394509 -35.70925117 19.32775495 -46.07763672 29.81933594 Z " fill="#000000" transform="translate(453.4609375,132.47265625)"/>
<path d="M0 0 C3.12345163 1.96640199 4.71273075 3.25847198 6.05732727 6.72927856 C6.2553746 7.7597934 6.45342194 8.79030823 6.6574707 9.85205078 C6.88721588 11.00852112 7.11696106 12.16499146 7.35366821 13.35650635 C7.5669577 14.55885925 7.78024719 15.76121216 8 17 C8.2101474 18.14386169 8.4202948 19.28772339 8.6368103 20.46624756 C9.28183792 24.09541044 9.88667812 27.72930234 10.48046875 31.3671875 C10.70017969 32.69950669 10.92009883 34.03179156 11.14021301 35.36404419 C11.59588348 38.12831047 12.04843025 40.8930651 12.4987793 43.65820312 C13.0737082 47.18607826 13.65760352 50.71240369 14.24392223 54.23840141 C14.69827206 56.97793755 15.14738335 59.71831337 15.5949955 62.45895767 C15.91088874 64.38648643 16.23153616 66.31323414 16.55229187 68.23995972 C18.93037318 82.95317901 18.93037318 82.95317901 16.75 87.75 C9.45529744 93.71839301 -3.12956126 93.99875769 -12.19921875 95.48046875 C-13.52817964 95.70015772 -14.85710242 95.9200773 -16.18598938 96.14021301 C-18.94775003 96.59644826 -21.7100963 97.04890774 -24.47290039 97.4987793 C-27.99080582 98.07206683 -31.50675964 98.65648627 -35.02232647 99.24392223 C-37.75747458 99.69939754 -40.49369711 100.14813531 -43.23026466 100.5949955 C-45.15010594 100.90991263 -47.06892832 101.23102158 -48.98771667 101.55229187 C-65.96283456 104.28881895 -65.96283456 104.28881895 -71.0625 101.0625 C-73.29844352 97.52826669 -73.59207226 95.3702954 -73.6640625 91.28125 C-72.68041306 87.90212486 -70.87272367 85.91100025 -68 84 C-64.43560295 82.8440359 -60.81964019 82.32976009 -57.1171875 81.796875 C-56.0659671 81.62875305 -55.0147467 81.4606311 -53.93167114 81.28741455 C-50.58213001 80.75571964 -47.22908151 80.25217426 -43.875 79.75 C-40.5149726 79.22738244 -37.15587037 78.69913762 -33.79690552 78.16973877 C-31.70875893 77.8427876 -29.61980128 77.52096711 -27.52999878 77.20477295 C-26.58536774 77.06082092 -25.64073669 76.9168689 -24.66748047 76.76855469 C-23.83650848 76.64373718 -23.0055365 76.51891968 -22.14938354 76.39031982 C-19.82684031 76.02096572 -19.82684031 76.02096572 -17 75 C-61.56700768 50.19618946 -110.41087169 43.3480901 -159.7890625 57.40234375 C-189.85538432 66.4004925 -216.97031767 83.65469723 -238.9375 105.9375 C-241.6211959 108.6211959 -242.48588803 108.95149887 -246.3125 109.3125 C-250.69433524 108.94115803 -252.15956566 108.34168746 -255 105 C-256.28839292 101.19049253 -256.62675908 98.30736344 -254.86328125 94.62890625 C-252.58278359 91.41134875 -249.98177775 88.64056086 -247.1875 85.875 C-246.61563965 85.3080542 -246.0437793 84.7411084 -245.45458984 84.15698242 C-239.36937836 78.23321532 -232.86499995 72.98845382 -226 68 C-225.42588379 67.58153809 -224.85176758 67.16307617 -224.26025391 66.73193359 C-182.91189234 37.00518726 -128.75088078 23.46034259 -78.28125 31.59765625 C-53.03133969 36.05097947 -29.17515073 44.04011639 -7 57 C-7.60669105 47.13983146 -9.16705786 37.55103487 -10.91870117 27.8371582 C-14.42459691 8.27935506 -14.42459691 8.27935506 -11.125 3 C-7.4943374 -0.41709421 -4.9378642 -0.41846307 0 0 Z " fill="#000000" transform="translate(337,36)"/>
</svg>
